<svg id="visual" viewBox="0 0 900 600" width="900" height="600" xmlns="http://www.w3.org/2000/svg" xmlns:xlink="http://www.w3.org/1999/xlink" version="1.1"><rect x="0" y="0" width="900" height="600" fill="#001220"></rect><path d="M0 368L21.5 365C43 362 86 356 128.8 361.3C171.7 366.7 214.3 383.3 257.2 385.2C300 387 343 374 385.8 382.2C428.7 390.3 471.3 419.7 514.2 431C557 442.3 600 435.7 642.8 421.8C685.7 408 728.3 387 771.2 379.8C814 372.7 857 379.3 878.5 382.7L900 386L900 601L878.5 601C857 601 814 601 771.2 601C728.3 601 685.7 601 642.8 601C600 601 557 601 514.2 601C471.3 601 428.7 601 385.8 601C343 601 300 601 257.2 601C214.3 601 171.7 601 128.8 601C86 601 43 601 21.5 601L0 601Z" fill="#fa7268"></path><path d="M0 437L21.5 438C43 439 86 441 128.8 433.7C171.7 426.3 214.3 409.7 257.2 411.7C300 413.7 343 434.3 385.8 435.7C428.7 437 471.3 419 514.2 410.5C557 402 600 403 642.8 407.5C685.7 412 728.3 420 771.2 423.2C814 426.3 857 424.7 878.5 423.8L900 423L900 601L878.5 601C857 601 814 601 771.2 601C728.3 601 685.7 601 642.8 601C600 601 557 601 514.2 601C471.3 601 428.7 601 385.8 601C343 601 300 601 257.2 601C214.3 601 171.7 601 128.8 601C86 601 43 601 21.5 601L0 601Z" fill="#ef5f67"></path><path d="M0 444L21.5 452C43 460 86 476 128.8 481.8C171.7 487.7 214.3 483.3 257.2 477.8C300 472.3 343 465.7 385.8 460.2C428.7 454.7 471.3 450.3 514.2 452.5C557 454.7 600 463.3 642.8 467.8C685.7 472.3 728.3 472.7 771.2 469.5C814 466.3 857 459.7 878.5 456.3L900 453L900 601L878.5 601C857 601 814 601 771.2 601C728.3 601 685.7 601 642.8 601C600 601 557 601 514.2 601C471.3 601 428.7 601 385.8 601C343 601 300 601 257.2 601C214.3 601 171.7 601 128.8 601C86 601 43 601 21.5 601L0 601Z" fill="#e34c67"></path><path d="M0 537L21.5 532.2C43 527.3 86 517.7 128.8 513.8C171.7 510 214.3 512 257.2 510.7C300 509.3 343 504.7 385.8 509.2C428.7 513.7 471.3 527.3 514.2 524.8C557 522.3 600 503.7 642.8 496.5C685.7 489.3 728.3 493.7 771.2 503C814 512.3 857 526.7 878.5 533.8L900 541L900 601L878.5 601C857 601 814 601 771.2 601C728.3 601 685.7 601 642.8 601C600 601 557 601 514.2 601C471.3 601 428.7 601 385.8 601C343 601 300 601 257.2 601C214.3 601 171.7 601 128.8 601C86 601 43 601 21.5 601L0 601Z" fill="#d53867"></path><path d="M0 526L21.5 527.7C43 529.3 86 532.7 128.8 540C171.7 547.3 214.3 558.7 257.2 560.7C300 562.7 343 555.3 385.8 554.8C428.7 554.3 471.3 560.7 514.2 562.5C557 564.3 600 561.7 642.8 557.8C685.7 554 728.3 549 771.2 547C814 545 857 546 878.5 546.5L900 547L900 601L878.5 601C857 601 814 601 771.2 601C728.3 601 685.7 601 642.8 601C600 601 557 601 514.2 601C471.3 601 428.7 601 385.8 601C343 601 300 601 257.2 601C214.3 601 171.7 601 128.8 601C86 601 43 601 21.5 601L0 601Z" fill="#c62368"></path></svg>